<svg width="20" height="22" fill="none" xmlns="http://www.w3.org/2000/svg">
  <path d="M10 18c.1978 0 .3911-.0586.5556-.1685.1644-.1099.2926-.2661.3683-.4488.0757-.1827.0955-.3838.0569-.5778s-.1338-.3722-.2737-.512c-.1398-.1399-.318-.2351-.512-.2737-.194-.0386-.39506-.0188-.57778.0569-.18273.0757-.33891.2039-.44879.3683C9.05865 16.6089 9 16.8022 9 17c0 .2652.10536.5196.29289.7071.18754.1875.44189.2929.70711.2929Zm5 0c.1978 0 .3911-.0586.5556-.1685.1644-.1099.2926-.2661.3683-.4488.0757-.1827.0955-.3838.0569-.5778s-.1338-.3722-.2737-.512c-.1398-.1399-.318-.2351-.512-.2737-.194-.0386-.3951-.0188-.5778.0569-.1827.0757-.3389.2039-.4488.3683-.1099.1645-.1685.3578-.1685.5556 0 .2652.1054.5196.2929.7071S14.7348 18 15 18Zm0-4c.1978 0 .3911-.0586.5556-.1685.1644-.1099.2926-.2661.3683-.4488.0757-.1827.0955-.3838.0569-.5778s-.1338-.3722-.2737-.512c-.1398-.1399-.318-.2351-.512-.2737-.194-.0386-.3951-.0188-.5778.0569-.1827.0757-.3389.2039-.4488.3683-.1099.1645-.1685.3578-.1685.5556 0 .2652.1054.5196.2929.7071S14.7348 14 15 14Zm-5 0c.1978 0 .3911-.0586.5556-.1685.1644-.1099.2926-.2661.3683-.4488.0757-.1827.0955-.3838.0569-.5778s-.1338-.3722-.2737-.512c-.1398-.1399-.318-.2351-.512-.2737-.194-.0386-.39506-.0188-.57778.0569-.18273.0757-.33891.2039-.44879.3683C9.05865 12.6089 9 12.8022 9 13c0 .2652.10536.5196.29289.7071.18754.1875.44189.2929.70711.2929Zm7-12h-1V1c0-.265216-.1054-.51957-.2929-.707107C15.5196.105357 15.2652 0 15 0c-.2652 0-.5196.105357-.7071.292893C14.1054.48043 14 .734784 14 1v1H6V1c0-.265216-.10536-.51957-.29289-.707107C5.51957.105357 5.26522 0 5 0s-.51957.105357-.70711.292893C4.10536.48043 4 .734784 4 1v1H3c-.79565 0-1.55871.31607-2.12132.87868C.316071 3.44129 0 4.20435 0 5v14c0 .7956.316071 1.5587.87868 2.1213C1.44129 21.6839 2.20435 22 3 22h14c.7956 0 1.5587-.3161 2.1213-.8787C19.6839 20.5587 20 19.7956 20 19V5c0-.79565-.3161-1.55871-.8787-2.12132C18.5587 2.31607 17.7956 2 17 2Zm1 17c0 .2652-.1054.5196-.2929.7071S17.2652 20 17 20H3c-.26522 0-.51957-.1054-.70711-.2929C2.10536 19.5196 2 19.2652 2 19v-9h16v9Zm0-11H2V5c0-.26522.10536-.51957.29289-.70711C2.48043 4.10536 2.73478 4 3 4h1v1c0 .26522.10536.51957.29289.70711C4.48043 5.89464 4.73478 6 5 6s.51957-.10536.70711-.29289C5.89464 5.51957 6 5.26522 6 5V4h8v1c0 .26522.1054.51957.2929.70711C14.4804 5.89464 14.7348 6 15 6c.2652 0 .5196-.10536.7071-.29289C15.8946 5.51957 16 5.26522 16 5V4h1c.2652 0 .5196.10536.7071.29289C17.8946 4.48043 18 4.73478 18 5v3ZM5 14c.19778 0 .39112-.0586.55557-.1685.16445-.1099.29262-.2661.36831-.4488.07569-.1827.09549-.3838.05691-.5778-.03859-.194-.13383-.3722-.27368-.512-.13986-.1399-.31804-.2351-.51202-.2737-.19398-.0386-.39505-.0188-.57777.0569-.18273.0757-.33891.2039-.44879.3683C4.05865 12.6089 4 12.8022 4 13c0 .2652.10536.5196.29289.7071C4.48043 13.8946 4.73478 14 5 14Zm0 4c.19778 0 .39112-.0586.55557-.1685.16445-.1099.29262-.2661.36831-.4488.07569-.1827.09549-.3838.05691-.5778-.03859-.194-.13383-.3722-.27368-.512-.13986-.1399-.31804-.2351-.51202-.2737-.19398-.0386-.39505-.0188-.57777.0569-.18273.0757-.33891.2039-.44879.3683C4.05865 16.6089 4 16.8022 4 17c0 .2652.10536.5196.29289.7071C4.48043 17.8946 4.73478 18 5 18Z" fill="#029F59"/>
</svg>