<svg width="16" height="16" fill="none" xmlns="http://www.w3.org/2000/svg">
  <g clip-path="url(#a)" fill="#029F59">
    <path d="M10.606 8.08195 16 11.492V4.52795l-5.394 3.554ZM0 4.52795V11.492l5.394-3.41005L0 4.52795ZM14.9998 2.5H.999784c-.498999 0-.894999.372-.9699988.851L7.99978 8.602l7.97002-5.251c-.075-.479-.471-.851-.97-.851ZM9.69023 8.68606l-1.415.932c-.084.055-.179.082-.275.082-.096 0-.191-.027-.275-.082l-1.415-.933L.0322266 12.6561c.0770004.475.4710004.844.9680034.844H15.0002c.497 0 .891-.369.968-.844L9.69023 8.68606Z"/>
  </g>
  <defs>
    <clipPath id="a">
      <path fill="white" d="M0 0h16v16H0z"/>
    </clipPath>
  </defs>
</svg>