<svg width="24" height="24" fill="none" xmlns="http://www.w3.org/2000/svg">
  <path d="m21.66 10.25-9-8.00001c-.1825-.16032-.4171-.24874-.66-.24874s-.4775.08842-.66.24874l-9 8.00001c-.15297.1353-.26084.3142-.3091.5126-.04827.1985-.03463.4069.0391.5974.07252.1879.2001.3496.36605.4638.16594.1142.36251.1756.56395.1762h1v9c0 .2652.10535.5196.29289.7071C4.48043 21.8946 4.73478 22 5 22h14c.2652 0 .5196-.1054.7071-.2929S20 21.2652 20 21v-9h1c.2014-.0006.398-.062.5639-.1762.166-.1142.2936-.2759.3661-.4638.0737-.1905.0874-.3989.0391-.5974-.0483-.1984-.1561-.3773-.3091-.5126ZM13 20h-2v-3c0-.2652.1054-.5196.2929-.7071.1875-.1876.4419-.2929.7071-.2929.2652 0 .5196.1053.7071.2929.1875.1875.2929.4419.2929.7071v3Zm5 0h-3v-3c0-.7957-.3161-1.5587-.8787-2.1213C13.5587 14.3161 12.7956 14 12 14c-.7957 0-1.5587.3161-2.12132.8787C9.31607 15.4413 9 16.2043 9 17v3H6v-8h12v8ZM5.63 9.99999l6.37-5.66 6.37 5.66H5.63Z" fill="#029F59"/>
</svg>