<svg width="16" height="16" fill="none" xmlns="http://www.w3.org/2000/svg">
  <path color="#029f59" d="M7.9996 0C4.75189 0 2.10938 2.64251 2.10938 5.89056c0 .84721.1734 1.65611.51514 2.40443C4.09724 11.5176 6.92085 14.9201 7.75137 15.886c.06222.0722.15293.1138.2484.1138.09546 0 .18617-.0416.2484-.1138.83018-.9657 3.65383-4.368 5.12703-7.59101.3419-.74832.5151-1.55722.5151-2.40443C13.89 2.64251 11.2475 0 7.9996 0Zm0 8.95013c-1.68706 0-3.05973-1.37267-3.05973-3.05974 0-1.68722 1.37267-3.0599 3.05973-3.0599 1.68707 0 3.0597 1.37268 3.0597 3.0599.0002 1.68707-1.37247 3.05974-3.0597 3.05974Z" fill="#029F59"/>
</svg>