<svg width="160" height="39" xmlns="http://www.w3.org/2000/svg">
  <g clip-path="url(#a)">
    <path d="M39.1242 14.1267 21.8269.512499c-.9266-.716535-2.2651-.716535-3.1917 0L11.428 6.04006c-.3089-1.12599-1.2356-1.84252-2.47108-1.84252-1.44145 0-2.57401 1.12598-2.57401 2.55905v3.17323L1.02899 14.0243c-1.132563.8189-1.338483 2.4567-.514802 3.5827.514802.6142 1.235522 1.0236 2.059202 1.0236.5148 0 1.13256-.2047 1.5444-.5118L20.1796 5.83533 35.8295 18.1188c1.1326.9213 2.7799.7165 3.6036-.4095.9266-1.1259.8237-2.7637-.3089-3.5826ZM12.7671 26.4095c0 1.4331 1.1326 2.5591 2.574 2.5591h3.5006v-6.0394h-6.0746v3.4803Z" />
    <path d="M27.6962 16.6851c0-1.4331-1.1325-2.5591-2.574-2.5591h-3.5006v6.0394h6.0746v-3.4803ZM18.9443 14.126h-3.5007c-1.4414 0-2.574 1.126-2.574 2.5591v3.4803h6.0747V14.126Z" />
    <path color="#029f59" d="M7.31014 30.2992c-.20592.1024-.41184.2048-.61776.2048.10296.5118.20592.9212.41184 1.433 1.95624 5.5276 8.13388 8.3937 13.69368 6.4489.2059-.1024.4119-.2048.6178-.2048-.103-.5118-.2059-.9212-.4119-1.433-1.9562-5.5276-8.0309-8.3937-13.69366-6.4489ZM36.9626 22.1103c-8.4427 0-15.341 6.8582-15.341 15.2519v.6142l9.6782-8.2913-9.1634 8.7007c.5148.1024 1.0296.1024 1.6473.1024 8.4428 0 15.3411-6.8583 15.3411-15.252v-.9212c-.7207-.1024-1.4414-.2047-2.1622-.2047Z" />
    <path d="M27.6962 22.9292h-6.0746v6.0394c1.3385-2.5591 3.5006-4.7087 6.0746-6.0394ZM61.9817 16.0709l-7.1042 7.9843h7.619c.6178 0 1.1326.1023 1.4415.4094.3089.3071.5148.6142.5148 1.126 0 .4094-.2059.8189-.5148 1.0236-.3089.3071-.8237.4095-1.4415.4095H51.8917c-.7208 0-1.3385-.2048-1.6474-.5118-.4118-.3071-.5148-.7166-.5148-1.3308 0-.307.103-.7165.4118-1.0236.3089-.3071.8237-.9212 1.6474-1.8425s1.6474-1.8425 2.3681-2.5591c.7207-.8189 1.3385-1.5354 1.9562-2.1496.6178-.7165 1.1326-1.2283 1.5444-1.7401.4119-.5118.7207-.8189.9267-1.2284h-5.7658c-.8237 0-1.4414-.1023-1.8533-.2047-.4118-.1024-.6177-.5118-.6177-1.126 0-.4094.2059-.8189.5148-1.0236.3088-.3071.7207-.4094 1.3384-.4094h8.9576c.8236 0 1.4414.1023 1.9562.4094.4118.2047.6178.7165.6178 1.3307 0 .2047 0 .4095-.103.6142s-.2059.4094-.3089.5118c-.1029.1024-.2059.3071-.4118.5118-.5148.3071-.7207.5118-.9267.8189ZM76.4993 25.1812c-.9266.7165-1.8533 1.2283-2.7799 1.6378-.9267.4094-1.8533.5118-2.9859.5118-1.0296 0-1.8533-.2047-2.6769-.6142-.7208-.4094-1.3385-.9212-1.7504-1.6378-.4118-.7165-.6177-1.433-.6177-2.1496 0-1.0236.3089-1.9449 1.0296-2.7638.7207-.7165 1.6473-1.2283 2.7799-1.5354.2059-.1024.8237-.2047 1.8533-.4094 1.0296-.2048 1.8533-.4095 2.574-.5119.7207-.2047 1.4414-.4094 2.2651-.6141 0-1.0236-.2059-1.7402-.6177-2.252-.4119-.5118-1.1326-.7165-2.2652-.7165-1.0296 0-1.7503.1023-2.2651.4094-.5148.3071-.9266.7166-1.2355 1.2284-.3089.5118-.6178.9212-.7207 1.126-.103.2047-.5148.307-.9267.307-.4118 0-.8237-.1023-1.1325-.4094-.3089-.3071-.5148-.6142-.5148-1.0236 0-.7166.2059-1.3307.7207-1.9449.5148-.6142 1.2355-1.126 2.2651-1.6378 1.0296-.4095 2.2651-.6142 3.8095-.6142 1.7503 0 3.0888.2047 4.0155.6142 1.0296.4094 1.6473 1.0236 2.0592 1.9449.4118.9212.6177 2.0472.6177 3.4803v4.5039c0 .7166.103 1.5355.4119 2.252.3089.7165.4118 1.3307.4118 1.5354 0 .4095-.2059.7166-.5148 1.126-.3089.4095-.8237.5118-1.2355.5118-.4118 0-.8237-.2047-1.2355-.5118-.5148-.5118-.9267-1.126-1.3385-1.8425Zm-.3089-5.5276c-.6178.2048-1.4414.4095-2.471.6142-1.1326.2047-1.8533.4095-2.2652.5118-.4118.1024-.8236.3071-1.2355.6142-.4118.3071-.6177.7165-.6177 1.3307s.2059 1.126.7207 1.5354c.4118.4095 1.0296.6142 1.7503.6142.7207 0 1.4414-.2047 2.1622-.5118.6177-.3071 1.1325-.8189 1.4414-1.3307.3089-.5118.5148-1.5354.5148-2.8662v-.5118ZM97.9149 14.4331V25.693c0 1.3307-.1029 2.3543-.4118 3.2756-.3089.9212-.7207 1.7401-1.3385 2.2519-.6178.6142-1.4414 1.0236-2.3681 1.3307-.9266.3071-2.1621.4095-3.7065.4095-1.3385 0-2.5741-.2047-3.6037-.5118-1.0296-.3071-1.8532-.8189-2.471-1.4331-.6178-.6142-.8237-1.2283-.8237-1.8425 0-.5118.2059-.8189.5148-1.126.3089-.3071.7207-.4095 1.1326-.4095.6177 0 1.0296.2048 1.5444.7166.2059.2047.4118.5118.6177.8189.206.3071.5148.5118.7208.7165.2059.2047.6177.3071 1.0296.4095.4118.1023.8237.1023 1.3385.1023 1.0296 0 1.7503-.1023 2.368-.4094.5148-.3071.9267-.7166 1.1326-1.126.2059-.5118.3089-1.0236.4118-1.6378 0-.6142.103-1.5354.103-2.7638-.6178.8189-1.3385 1.4331-2.0592 1.9449-.7207.5118-1.7503.6142-2.7799.6142-1.3385 0-2.4711-.3071-3.3977-1.0236-.9267-.6142-1.7503-1.6378-2.2651-2.7638-.5148-1.2284-.8237-2.5591-.8237-4.0945 0-1.126.2059-2.252.5148-3.1732.3089-.9213.8237-1.7402 1.3385-2.3544.6177-.6141 1.2355-1.126 2.0592-1.433.7207-.3071 1.6473-.5119 2.574-.5119 1.1325 0 2.0592.2048 2.8829.6142.8236.4095 1.5444 1.126 2.2651 1.9449v-.5118c0-.7165.2059-1.2284.5148-1.5354.3089-.4095.7207-.5119 1.2355-.5119.7207 0 1.2355.2048 1.5444.7166.103.5118.2059 1.2283.2059 2.0472Zm-11.2226 5.0158c0 1.5354.3088 2.7638 1.0296 3.5826.7207.8189 1.5444 1.2284 2.6769 1.2284.6178 0 1.2356-.2047 1.8533-.5118.6178-.3071 1.0296-.8189 1.4415-1.5354.4118-.7166.5148-1.5355.5148-2.5591 0-1.5354-.3089-2.7638-1.0296-3.685-.7208-.9213-1.6474-1.3308-2.78-1.3308-1.1325 0-2.0592.4095-2.6769 1.2284-.7208.8189-1.0296 1.9449-1.0296 3.5827ZM112.638 25.1811v-.4094c-.515.6142-1.03 1.126-1.544 1.4331-.515.4094-1.03.6141-1.648.8189-.618.2047-1.235.3071-1.956.3071-.927 0-1.75-.2048-2.574-.6142-.824-.4095-1.441-.9213-2.059-1.6378-.618-.7166-1.03-1.6378-1.339-2.5591-.309-1.0236-.412-2.0472-.412-3.1732 0-2.4567.618-4.2992 1.751-5.6299 1.235-1.3307 2.78-2.0473 4.736-2.0473 1.132 0 2.059.2048 2.883.6142.824.4095 1.544 1.0236 2.265 1.7402V8.29138c0-.8189.206-1.43307.515-1.84252.309-.40945.823-.61417 1.338-.61417.618 0 1.03.20472 1.339.51181.309.40945.515.92126.515 1.63779V25.0788c0 .7165-.206 1.3307-.515 1.6378-.309.4094-.824.5118-1.339.5118s-.926-.2047-1.338-.6142c-.412-.4094-.618-.7165-.618-1.4331Zm-7.722-5.7322c0 1.0236.206 1.9448.515 2.6614.309.7165.823 1.3307 1.338 1.6378.618.4094 1.236.5118 1.854.5118.72 0 1.338-.2047 1.853-.5118.618-.3071 1.029-.9213 1.338-1.6378.309-.7166.515-1.6378.515-2.7638 0-1.0236-.206-1.9449-.515-2.6614-.309-.7166-.823-1.3307-1.338-1.7402-.618-.4094-1.236-.6141-1.853-.6141-.721 0-1.339.2047-1.957.6141-.515.4095-1.029 1.0236-1.338 1.7402-.206.9212-.412 1.8425-.412 2.7638ZM134.775 19.5512c0 1.126-.206 2.252-.515 3.1733-.412 1.0236-.927 1.8425-1.545 2.559-.617.7166-1.544 1.2284-2.471 1.6378-.926.4095-2.059.5118-3.191.5118-1.133 0-2.266-.2047-3.192-.6142-.927-.4094-1.751-.9212-2.471-1.6377-.721-.7166-1.236-1.5355-1.545-2.4567-.309-.9213-.514-2.0473-.514-3.1733s.205-2.2519.514-3.2756c.412-1.0236.927-1.8425 1.545-2.4567.618-.6141 1.544-1.2283 2.471-1.6377.926-.4095 2.059-.5119 3.192-.5119 1.132 0 2.265.2048 3.191.6142.927.4095 1.751.9213 2.471 1.6378.721.7165 1.236 1.5354 1.545 2.4567.412.9213.515 1.9449.515 3.1732Zm-3.913 0c0-1.5354-.309-2.7637-1.03-3.685-.72-.9213-1.647-1.3307-2.779-1.3307-.721 0-1.442.2047-2.06.6142-.617.4094-1.029 1.0236-1.338 1.7401-.309.8189-.515 1.6378-.515 2.6614 0 1.0237.206 1.9449.515 2.6615.309.7165.721 1.3307 1.338 1.7401.618.4095 1.236.6142 2.06.6142 1.132 0 2.162-.4095 2.779-1.3307.721-.9213 1.03-2.1496 1.03-3.6851ZM150.836 19.8583v5.1181c0 .8189-.206 1.4331-.515 1.8426-.411.4094-.823.6141-1.441.6141-.618 0-1.03-.2047-1.441-.6141-.412-.4095-.515-1.0237-.515-1.8426v-6.1417c0-1.0236 0-1.7402-.103-2.252-.103-.5118-.206-1.0236-.515-1.3307-.309-.3071-.721-.5118-1.442-.5118-1.235 0-2.162.4095-2.574 1.3307-.411.9213-.617 2.1496-.617 3.7874v5.2205c0 .8189-.206 1.4331-.515 1.8425-.309.4095-.824.6142-1.442.6142-.617 0-1.029-.2047-1.441-.6142-.412-.4094-.515-1.0236-.515-1.8425V13.9213c0-.7165.206-1.3307.515-1.6378.309-.3071.824-.6142 1.339-.6142.514 0 1.029.2048 1.338.5119.309.307.515.8189.515 1.433v.4095c.721-.8189 1.441-1.4331 2.162-1.7402.824-.4094 1.647-.6142 2.574-.6142 1.03 0 1.853.2048 2.574.6142.721.4095 1.236 1.0236 1.75 1.7402.618-.8189 1.339-1.4331 2.162-1.7402.721-.4094 1.545-.6142 2.472-.6142 1.029 0 1.956.2048 2.779.6142.721.4095 1.339 1.0236 1.751 1.7402.309.7165.515 1.8425.515 3.2756v7.5748c0 .8189-.206 1.433-.515 1.8425-.412.4094-.824.6142-1.442.6142-.617 0-1.029-.2048-1.441-.6142-.412-.4095-.515-1.0236-.515-1.8425v-6.4489c0-.8188 0-1.5354-.103-2.0472s-.309-.9213-.618-1.2283c-.309-.3071-.823-.5119-1.441-.5119-.515 0-1.03.1024-1.442.4095-.411.3071-.823.7165-1.029 1.2283-.618.7166-.824 1.8426-.824 3.5827Z" />
  </g>
  <defs>
    <clipPath id="a">
      <path fill="#fff" d="M0 0h160v39H0z"/>
    </clipPath>
  </defs>
</svg>