<svg width="16" height="16" fill="none" xmlns="http://www.w3.org/2000/svg">
  <path d="M12.1644 10.5846c-.5228-.516-1.1753-.516-1.6947 0-.3963.3929-.79248.7858-1.18203 1.1854-.10655.1098-.19645.1331-.3263.0599-.25637-.1399-.52939-.2531-.77578-.4062-1.14869-.7225-2.11092-1.65147-2.96328-2.69694-.42285-.5194-.79909-1.07544-1.06212-1.70139-.05327-.12652-.04328-.20976.05993-.31297.39622-.3829.78244-.77578 1.172-1.16867.54271-.54604.54271-1.18531-.00333-1.73468-.30965-.31298-.6193-.6193-.92894-.93227-.31964-.31964-.63594-.6426-.95891-.95891-.52273-.50942-1.17532-.50942-1.69473.00333-.39954.39289-.78244.79576-1.18864 1.18199-.376237.35626-.5660201.79242-.6059745 1.30184-.0632611.82906.1398405 1.61149.4261795 2.37396C1.02377 8.35718 1.91609 9.75892 2.99818 11.0441c1.46167 1.738 3.20634 3.1131 5.24734 4.1053.91895.4462 1.87118.7891 2.90668.8457.7125.04 1.3318-.1398 1.8279-.6958.3396-.3796.7225-.7259 1.0821-1.0888.5327-.5394.5361-1.192.0067-1.7247-.6326-.6359-1.2686-1.2685-1.9045-1.9012ZM11.5286 7.93097l1.2286-.20976c-.1931-1.12871-.7258-2.15087-1.5349-2.96328-.8557-.85569-1.93776-1.39507-3.12973-1.56155l-.17314 1.23526c.92228.12985 1.76133.54604 2.42387 1.20862.626.62595 1.0355 1.41838 1.1853 2.29071ZM13.4497 2.59037C12.0313 1.17199 10.2367.276351 8.25566 0l-.17314 1.23526c1.71138.23972 3.26298 1.0155 4.48818 2.23744 1.162 1.16201 1.9245 2.63033 2.2008 4.24515l1.2286-.20976c-.3229-1.8712-1.2052-3.56926-2.5504-4.91772Z" fill="#029F59"/>
</svg>